<svg width="43" height="34" viewBox="0 0 43 34" fill="none" xmlns="http://www.w3.org/2000/svg">
<path d="M32.3544 30.0123C32.3544 30.0123 32.9806 30.9232 34.9751 32.2014C35.1243 32.2958 35.2809 32.3934 35.4458 32.492C36.072 32.8688 36.8078 33.2696 37.6772 33.6852L37.8859 28.3333C37.8859 28.3333 40.5995 28.5432 43 27.4938C42.7234 27.3553 41.5315 26.7099 39.8178 25.3741C39.6644 25.2555 39.5047 25.1296 39.344 24.9984C38.5862 24.3856 37.7419 23.6478 36.8391 22.7716C35.4854 25.0802 32.3544 30.0123 32.3544 30.0123Z" fill="url(#paint0_linear_102_539)"/>
<path d="M10.6456 29.6975C10.6456 29.6975 10.0194 30.6084 8.02493 31.8865C7.87568 31.981 7.71913 32.0786 7.55422 32.1772C6.92801 32.5539 6.19743 32.9548 5.32282 33.3704L5.11408 28.0185C5.11408 28.0185 2.40049 28.2284 0 27.179C0.276578 27.0405 1.46847 26.3951 3.18221 25.0593C3.33563 24.9407 3.49532 24.8148 3.65604 24.6836C4.41376 24.0707 5.25811 23.333 6.1609 22.4568C7.51456 24.7654 10.6456 29.6975 10.6456 29.6975Z" fill="url(#paint1_linear_102_539)"/>
<path d="M21.5005 0C30.8382 0.000237338 38.4077 7.61131 38.4077 17C38.4077 26.3887 30.8382 33.9998 21.5005 34C12.1626 34 4.59229 26.3888 4.59229 17C4.59229 7.61116 12.1626 0 21.5005 0ZM21.4995 4.09277C14.4098 4.09303 8.6626 9.87159 8.6626 17C8.6626 24.1284 14.4098 29.907 21.4995 29.9072C28.5894 29.9072 34.3374 24.1286 34.3374 17C34.3374 9.87144 28.5894 4.09277 21.4995 4.09277Z" fill="#84391B"/>
<mask id="mask0_102_539" style="mask-type:alpha" maskUnits="userSpaceOnUse" x="4" y="0" width="35" height="34">
<path d="M21.5005 0C30.8382 0.000237338 38.4077 7.61131 38.4077 17C38.4077 26.3887 30.8382 33.9998 21.5005 34C12.1626 34 4.59229 26.3888 4.59229 17C4.59229 7.61116 12.1626 0 21.5005 0ZM21.4995 4.09277C14.4098 4.09303 8.6626 9.87159 8.6626 17C8.6626 24.1284 14.4098 29.907 21.4995 29.9072C28.5894 29.9072 34.3374 24.1286 34.3374 17C34.3374 9.87144 28.5894 4.09277 21.4995 4.09277Z" fill="#6C7E92"/>
</mask>
<g mask="url(#mask0_102_539)">
<g filter="url(#filter0_f_102_539)">
<ellipse cx="3.8713" cy="7.85087" rx="3.8713" ry="7.85087" transform="matrix(0.734822 0.67826 -0.674267 0.738487 13.7183 -2.60449)" fill="#F9EEDE"/>
</g>
<g filter="url(#filter1_f_102_539)">
<ellipse cx="3.86693" cy="7.85972" rx="3.86693" ry="7.85972" transform="matrix(-0.864844 0.502042 -0.497961 -0.867199 39.7736 10.6936)" fill="#DED6C3"/>
</g>
<g filter="url(#filter2_f_102_539)">
<ellipse cx="3.8722" cy="7.84905" rx="3.8722" ry="7.84905" transform="matrix(-0.705181 -0.709028 0.705181 -0.709028 28.2136 36.8934)" fill="#E0C9B8"/>
</g>
<g filter="url(#filter3_f_102_539)">
<ellipse cx="3.8722" cy="7.84905" rx="3.8722" ry="7.84905" transform="matrix(0.705181 -0.709028 0.705181 0.709028 3.1311 24.2939)" fill="#E29F50"/>
</g>
</g>
<ellipse cx="21.5" cy="17" rx="12.8374" ry="12.9074" fill="url(#paint2_linear_102_539)"/>
<path d="M21.4996 3.14816C29.1082 3.14816 35.2768 9.34969 35.277 16.9997C35.277 24.6499 29.1083 30.8523 21.4996 30.8523C13.8911 30.8521 7.72327 24.6498 7.72327 16.9997C7.72342 9.3498 13.8912 3.14834 21.4996 3.14816ZM21.4996 4.0925C14.41 4.09268 8.66287 9.8714 8.66272 16.9997C8.66272 24.1282 14.4099 29.9068 21.4996 29.907C28.5895 29.907 34.3375 24.1283 34.3375 16.9997C34.3374 9.87129 28.5894 4.0925 21.4996 4.0925Z" fill="url(#paint3_linear_102_539)"/>
<path d="M22.068 11.7098L23.3831 14.3962C23.477 14.5956 23.6649 14.732 23.884 14.7635L26.8377 15.1938C27.3804 15.2777 27.5996 15.9493 27.203 16.3271L25.0634 18.4154C24.9068 18.5728 24.8338 18.7932 24.8755 19.003L25.3765 21.9518C25.4704 22.4975 24.8964 22.9067 24.4163 22.6549L21.7862 21.2697C21.5879 21.1648 21.3583 21.1648 21.1704 21.2697L18.5299 22.6654C18.0394 22.9172 17.4758 22.508 17.5697 21.9623L18.0707 19.0135C18.1124 18.7932 18.0394 18.5728 17.8828 18.4259L15.7537 16.3376C15.3571 15.9493 15.5763 15.2777 16.119 15.2043L19.0726 14.774C19.2918 14.7425 19.4797 14.6061 19.5736 14.4067L20.8886 11.7203C21.1183 11.2061 21.828 11.2061 22.068 11.7098Z" fill="url(#paint4_linear_102_539)"/>
<path d="M17.426 18.891L17.4426 18.8939M17.426 18.891L17.8831 18.4261M17.426 18.891L17.4426 18.8939M17.426 18.891L17.8831 18.4261M17.4426 18.8939L17.8831 18.4261M17.4426 18.8939L17.8831 18.4261M19.9905 11.2816C20.5898 10.0037 22.3684 10.0352 22.9661 11.2699L24.2043 13.7992L26.9817 14.2044L26.9905 14.2054C28.3214 14.4113 28.906 16.0705 27.9006 17.0414L27.9016 17.0423L25.8899 19.0052L26.3625 21.7845H26.3616C26.595 23.151 25.16 24.1744 23.9514 23.5404L23.9504 23.5394L21.4778 22.2376L18.9973 23.5492L18.9866 23.555C17.808 24.16 16.4369 23.2214 16.5667 21.9193L16.5842 21.7923L17.0559 19.015L15.0549 17.0511L15.054 17.0521C14.0779 16.0964 14.5964 14.4013 15.9846 14.2132L18.7512 13.8099L19.9905 11.2806V11.2816Z" stroke="url(#paint5_linear_102_539)" stroke-width="2"/>
<path d="M21.4995 6.09259C27.4745 6.09259 32.3373 10.9656 32.3374 16.9998C32.3374 23.0341 27.4746 27.907 21.4995 27.907C15.5246 27.9068 10.6626 23.0339 10.6626 16.9998C10.6627 10.9658 15.5247 6.09284 21.4995 6.09259Z" stroke="url(#paint6_linear_102_539)" stroke-width="4"/>
<path opacity="0.15" d="M34.7549 6.4537C33.9604 7.40973 33.2376 8.14794 32.3561 9.00619C32.2908 9.07137 32.2255 9.13655 32.1602 9.20174C32.1166 9.24519 32.084 9.27779 32.0404 9.32124C31.8772 9.47334 31.7139 9.63629 31.5398 9.78839C31.4745 9.84271 31.4201 9.89703 31.3548 9.96221C31.3113 9.9948 31.2677 10.0383 31.2351 10.0709C31.1807 10.1252 31.1262 10.1686 31.0718 10.2121C25.2818 15.329 17.9246 18.4469 10.1537 19.0119C10.0776 19.0119 10.0123 19.0227 9.93608 19.0227C9.88166 19.0227 9.82724 19.0336 9.77283 19.0336C9.68576 19.0336 9.60957 19.0444 9.52251 19.0444C9.23954 19.0553 8.95656 19.077 8.67359 19.077C8.58653 19.077 8.48857 19.0879 8.40151 19.0879C8.18384 19.0988 7.96617 19.0988 7.75938 19.0988C6.74722 19.0988 5.73505 19.0662 4.712 18.9793C4.63582 18.3383 4.59229 17.6756 4.59229 17.0129C4.59229 7.61561 12.2216 0 21.6249 0C25.8586 0 29.6333 1.63365 32.6153 4.19753C33.3881 4.86023 34.1019 5.66064 34.7549 6.4537Z" fill="url(#paint7_linear_102_539)"/>
<defs>
<filter id="filter0_f_102_539" x="-53.7413" y="-59.5472" width="130.021" height="130.732" filterUnits="userSpaceOnUse" color-interpolation-filters="sRGB">
<feFlood flood-opacity="0" result="BackgroundImageFix"/>
<feBlend mode="normal" in="SourceGraphic" in2="BackgroundImageFix" result="shape"/>
<feGaussianBlur stdDeviation="29.5" result="effect1_foregroundBlur_102_539"/>
</filter>
<filter id="filter1_f_102_539" x="-31.6327" y="-60.2698" width="128.296" height="132.178" filterUnits="userSpaceOnUse" color-interpolation-filters="sRGB">
<feFlood flood-opacity="0" result="BackgroundImageFix"/>
<feBlend mode="normal" in="SourceGraphic" in2="BackgroundImageFix" result="shape"/>
<feGaussianBlur stdDeviation="29.5" result="effect1_foregroundBlur_102_539"/>
</filter>
<filter id="filter2_f_102_539" x="-34.1553" y="-36.6242" width="130.347" height="130.414" filterUnits="userSpaceOnUse" color-interpolation-filters="sRGB">
<feFlood flood-opacity="0" result="BackgroundImageFix"/>
<feBlend mode="normal" in="SourceGraphic" in2="BackgroundImageFix" result="shape"/>
<feGaussianBlur stdDeviation="29.5" result="effect1_foregroundBlur_102_539"/>
</filter>
<filter id="filter3_f_102_539" x="-53.7766" y="-38.0934" width="130.347" height="130.414" filterUnits="userSpaceOnUse" color-interpolation-filters="sRGB">
<feFlood flood-opacity="0" result="BackgroundImageFix"/>
<feBlend mode="normal" in="SourceGraphic" in2="BackgroundImageFix" result="shape"/>
<feGaussianBlur stdDeviation="29.5" result="effect1_foregroundBlur_102_539"/>
</filter>
<linearGradient id="paint0_linear_102_539" x1="40.6653" y1="30.8328" x2="34.304" y2="26.4027" gradientUnits="userSpaceOnUse">
<stop stop-color="#FF00B7"/>
<stop offset="0.405" stop-color="#E3029E"/>
<stop offset="0.5279" stop-color="#E527A5"/>
<stop offset="0.6172" stop-color="#B90280"/>
<stop offset="1" stop-color="#730054"/>
</linearGradient>
<linearGradient id="paint1_linear_102_539" x1="3.49636" y1="30.6944" x2="8.26602" y2="26.7847" gradientUnits="userSpaceOnUse">
<stop stop-color="#FF00B7"/>
<stop offset="0.405" stop-color="#E3029E"/>
<stop offset="0.5279" stop-color="#E527A5"/>
<stop offset="0.6172" stop-color="#B90280"/>
<stop offset="1" stop-color="#730054"/>
</linearGradient>
<linearGradient id="paint2_linear_102_539" x1="21.5" y1="4.09259" x2="21.5" y2="29.9074" gradientUnits="userSpaceOnUse">
<stop stop-color="#616184"/>
<stop offset="0.484375" stop-color="#403C55"/>
<stop offset="1" stop-color="#40303A"/>
</linearGradient>
<linearGradient id="paint3_linear_102_539" x1="21.5001" y1="3.14816" x2="21.5001" y2="30.8523" gradientUnits="userSpaceOnUse">
<stop stop-color="#3F221F"/>
<stop offset="1" stop-color="#E3A763"/>
</linearGradient>
<linearGradient id="paint4_linear_102_539" x1="21.4731" y1="11.4445" x2="21.4731" y2="21.3715" gradientUnits="userSpaceOnUse">
<stop offset="0.0820804" stop-color="#EDB966"/>
<stop offset="0.2263" stop-color="#DDDCD7"/>
<stop offset="0.3883" stop-color="#E9B87D"/>
<stop offset="0.5895" stop-color="#853A27"/>
<stop offset="1" stop-color="#D3954C"/>
</linearGradient>
<linearGradient id="paint5_linear_102_539" x1="21.4783" y1="11.3333" x2="21.4783" y2="22.7414" gradientUnits="userSpaceOnUse">
<stop stop-color="#3F221F"/>
<stop offset="1" stop-color="#863C1F"/>
</linearGradient>
<linearGradient id="paint6_linear_102_539" x1="21.5" y1="4.08917" x2="21.5" y2="29.904" gradientUnits="userSpaceOnUse">
<stop stop-color="#3C3D4F"/>
<stop offset="1" stop-color="#081630"/>
</linearGradient>
<linearGradient id="paint7_linear_102_539" x1="12.5622" y1="2.62074" x2="22.1825" y2="16.0132" gradientUnits="userSpaceOnUse">
<stop offset="0.5084" stop-color="white" stop-opacity="0"/>
<stop offset="1" stop-color="white"/>
</linearGradient>
</defs>
</svg>
