<svg width="43" height="34" viewBox="0 0 43 34" fill="none" xmlns="http://www.w3.org/2000/svg">
<path d="M32.3544 30.0123C32.3544 30.0123 32.9806 30.9232 34.9751 32.2014C35.1243 32.2958 35.2809 32.3934 35.4458 32.492C36.072 32.8688 36.8078 33.2696 37.6772 33.6852L37.8859 28.3333C37.8859 28.3333 40.5995 28.5432 43 27.4938C42.7234 27.3553 41.5315 26.7099 39.8178 25.3741C39.6644 25.2555 39.5047 25.1296 39.344 24.9984C38.5862 24.3856 37.7419 23.6478 36.8391 22.7716C35.4854 25.0802 32.3544 30.0123 32.3544 30.0123Z" fill="url(#paint0_linear_102_567)"/>
<path d="M10.6456 29.6975C10.6456 29.6975 10.0194 30.6084 8.02493 31.8865C7.87568 31.981 7.71913 32.0786 7.55422 32.1772C6.92801 32.5539 6.19743 32.9548 5.32282 33.3704L5.11408 28.0185C5.11408 28.0185 2.40049 28.2284 0 27.179C0.276578 27.0405 1.46847 26.3951 3.18221 25.0593C3.33563 24.9407 3.49532 24.8148 3.65604 24.6836C4.41376 24.0707 5.25811 23.333 6.1609 22.4568C7.51456 24.7654 10.6456 29.6975 10.6456 29.6975Z" fill="url(#paint1_linear_102_567)"/>
<path d="M21.8135 0C31.1512 0.000237338 38.7208 7.61131 38.7208 17C38.7208 26.3887 31.1512 33.9998 21.8135 34C12.4756 34 4.90533 26.3888 4.90533 17C4.90533 7.61116 12.4756 0 21.8135 0ZM21.8135 4.09277C14.7236 4.09277 8.97565 9.87144 8.97565 17C8.97565 24.1286 14.7236 29.9072 21.8135 29.9072C28.9032 29.907 34.6505 24.1284 34.6505 17C34.6505 9.87159 28.9032 4.09302 21.8135 4.09277Z" fill="#E36302"/>
<mask id="mask0_102_567" style="mask-type:alpha" maskUnits="userSpaceOnUse" x="4" y="0" width="35" height="34">
<path d="M21.8135 0C31.1512 0.000237338 38.7208 7.61131 38.7208 17C38.7208 26.3887 31.1512 33.9998 21.8135 34C12.4756 34 4.90533 26.3888 4.90533 17C4.90533 7.61116 12.4756 0 21.8135 0ZM21.8135 4.09277C14.7236 4.09277 8.97565 9.87144 8.97565 17C8.97565 24.1286 14.7236 29.9072 21.8135 29.9072C28.9032 29.907 34.6505 24.1284 34.6505 17C34.6505 9.87159 28.9032 4.09302 21.8135 4.09277Z" fill="#6C7E92"/>
</mask>
<g mask="url(#mask0_102_567)">
<g filter="url(#filter0_f_102_567)">
<ellipse cx="6.01583" cy="11.3463" rx="6.01583" ry="11.3463" transform="matrix(0.734822 0.67826 -0.674267 0.738487 18.5035 -7.63589)" fill="#FBEB93"/>
</g>
<g filter="url(#filter1_f_102_567)">
<ellipse cx="3.86693" cy="10.9091" rx="3.86693" ry="10.9091" transform="matrix(-0.864844 0.502042 -0.497961 -0.867199 40.7231 12.2047)" fill="#F9C94D"/>
</g>
<g filter="url(#filter2_f_102_567)">
<ellipse cx="3.8722" cy="7.84905" rx="3.8722" ry="7.84905" transform="matrix(-0.705181 -0.709028 0.705181 -0.709028 28.4224 36.8745)" fill="#FEDB78"/>
</g>
<g filter="url(#filter3_f_102_567)">
<ellipse cx="3.8722" cy="7.84905" rx="3.8722" ry="7.84905" transform="matrix(0.705181 -0.709028 0.705181 0.709028 3.33978 24.2749)" fill="#FBE515"/>
</g>
</g>
<ellipse cx="21.8131" cy="17" rx="12.8374" ry="12.9074" fill="url(#paint2_linear_102_567)"/>
<path d="M21.8127 3.14816C29.4213 3.14816 35.5899 9.34969 35.5901 16.9997C35.5901 24.6499 29.4214 30.8523 21.8127 30.8523C14.2042 30.8521 8.03638 24.6498 8.03638 16.9997C8.03653 9.3498 14.2043 3.14834 21.8127 3.14816ZM21.8127 4.0925C14.7231 4.09268 8.97599 9.87141 8.97583 16.9997C8.97583 24.1282 14.723 29.9068 21.8127 29.907C28.9026 29.907 34.6506 24.1283 34.6506 16.9997C34.6505 9.87129 28.9025 4.0925 21.8127 4.0925Z" fill="url(#paint3_linear_102_567)"/>
<path d="M25.0475 23.1596C24.872 23.1594 24.6993 23.1158 24.5445 23.0326L21.906 21.639C21.8709 21.6204 21.8319 21.6107 21.7923 21.6107C21.7526 21.6107 21.7136 21.6204 21.6785 21.639L19.0401 23.0326C18.8853 23.1158 18.7125 23.1594 18.537 23.1596C18.3796 23.159 18.2243 23.1241 18.0818 23.0571C17.9392 22.9901 17.8129 22.8927 17.7116 22.7717C17.6103 22.6506 17.5364 22.5089 17.4951 22.3562C17.4538 22.2035 17.4461 22.0437 17.4724 21.8877L17.9765 18.9347C17.9833 18.8953 17.9804 18.8548 17.968 18.8167C17.9556 18.7787 17.9342 18.7443 17.9056 18.7165L15.7723 16.625C15.6281 16.4835 15.5262 16.3043 15.478 16.1076C15.4298 15.9109 15.4372 15.7046 15.4994 15.5119C15.5616 15.3192 15.676 15.1478 15.8299 15.017C15.9838 14.8863 16.171 14.8014 16.3703 14.7718L19.3198 14.3416C19.3591 14.3356 19.3965 14.3202 19.4286 14.2966C19.4608 14.2731 19.4868 14.2421 19.5045 14.2062L20.8237 11.5188C20.9129 11.3371 21.0509 11.1841 21.2221 11.0772C21.3933 10.9702 21.5907 10.9136 21.7923 10.9136C21.9938 10.9136 22.1913 10.9702 22.3624 11.0772C22.5336 11.1841 22.6716 11.3371 22.7608 11.5188L24.08 14.2062C24.0977 14.2421 24.1237 14.2731 24.1559 14.2966C24.1881 14.3202 24.2254 14.3356 24.2648 14.3416L27.2142 14.7718C27.4136 14.8014 27.6007 14.8863 27.7546 15.017C27.9085 15.1478 28.023 15.3192 28.0851 15.5119C28.1473 15.7046 28.1547 15.9109 28.1065 16.1076C28.0583 16.3043 27.9564 16.4835 27.8123 16.625L25.679 18.7165C25.6503 18.7443 25.6289 18.7787 25.6165 18.8167C25.6042 18.8548 25.6012 18.8953 25.608 18.9347L26.1121 21.8877C26.1385 22.0437 26.1307 22.2035 26.0894 22.3562C26.0481 22.5089 25.9743 22.6506 25.873 22.7717C25.7716 22.8927 25.6453 22.9901 25.5028 23.0571C25.3602 23.1241 25.2049 23.159 25.0475 23.1596Z" fill="#470068"/>
<path d="M22.3868 11.7052L23.706 14.3927C23.7537 14.4894 23.824 14.573 23.9109 14.6364C23.9978 14.6998 24.0987 14.7411 24.2049 14.7568L27.1543 15.1881C27.2767 15.206 27.3916 15.2579 27.4862 15.3381C27.5807 15.4182 27.6511 15.5233 27.6893 15.6416C27.7275 15.7598 27.7321 15.8864 27.7025 16.0071C27.6728 16.1278 27.6102 16.2378 27.5217 16.3246L25.3874 18.416C25.3106 18.4915 25.2531 18.5846 25.22 18.6873C25.1869 18.7901 25.1792 18.8993 25.1974 19.0058L25.7005 21.9598C25.7217 22.0823 25.7082 22.2084 25.6617 22.3237C25.6152 22.439 25.5375 22.5388 25.4374 22.612C25.3373 22.6851 25.2188 22.7285 25.0954 22.7373C24.972 22.7461 24.8486 22.72 24.7392 22.6618L22.106 21.2682C22.0108 21.2176 21.9048 21.1911 21.7971 21.1911C21.6894 21.1911 21.5833 21.2176 21.4882 21.2682L18.8466 22.6618C18.7372 22.72 18.6138 22.7461 18.4904 22.7373C18.367 22.7285 18.2485 22.6851 18.1484 22.612C18.0483 22.5388 17.9706 22.439 17.9241 22.3237C17.8776 22.2084 17.8642 22.0823 17.8853 21.9598L18.3884 19.0058C18.4066 18.8993 18.3989 18.7901 18.3658 18.6873C18.3327 18.5846 18.2753 18.4915 18.1984 18.416L16.0641 16.3246C15.9756 16.2378 15.913 16.1278 15.8834 16.0071C15.8537 15.8864 15.8583 15.7598 15.8965 15.6416C15.9348 15.5233 16.0051 15.4182 16.0996 15.3381C16.1942 15.2579 16.3091 15.206 16.4315 15.1881L19.3809 14.7568C19.4872 14.7411 19.588 14.6998 19.6749 14.6364C19.7618 14.573 19.8321 14.4894 19.8798 14.3927L21.199 11.7052C21.2536 11.5936 21.3381 11.4996 21.4431 11.4339C21.5481 11.3682 21.6693 11.3333 21.7929 11.3333C21.9166 11.3333 22.0377 11.3682 22.1427 11.4339C22.2477 11.4996 22.3322 11.5936 22.3868 11.7052Z" fill="url(#paint4_linear_102_567)"/>
<path d="M21.8126 6.59259C27.5089 6.59259 32.1504 11.2392 32.1505 16.9998C32.1505 22.7605 27.509 27.407 21.8126 27.407C16.1165 27.4068 11.4757 22.7604 11.4757 16.9998C11.4758 11.2394 16.1165 6.59284 21.8126 6.59259Z" stroke="url(#paint5_linear_102_567)" stroke-width="5"/>
<path opacity="0.15" d="M35.068 6.4537C34.2735 7.40973 33.5507 8.14794 32.6691 9.00619C32.6038 9.07137 32.5385 9.13655 32.4732 9.20174C32.4297 9.24519 32.397 9.27779 32.3535 9.32124C32.1902 9.47334 32.027 9.63629 31.8529 9.78839C31.7876 9.84271 31.7331 9.89703 31.6678 9.96221C31.6243 9.9948 31.5808 10.0383 31.5481 10.0709C31.4937 10.1252 31.4393 10.1686 31.3849 10.2121C25.5949 15.329 18.2376 18.4469 10.4668 19.0119C10.3906 19.0119 10.3253 19.0227 10.2491 19.0227C10.1947 19.0227 10.1403 19.0336 10.0859 19.0336C9.99881 19.0336 9.92262 19.0444 9.83556 19.0444C9.55259 19.0553 9.26961 19.077 8.98664 19.077C8.89958 19.077 8.80162 19.0879 8.71456 19.0879C8.49689 19.0988 8.27922 19.0988 8.07243 19.0988C7.06027 19.0988 6.0481 19.0662 5.02505 18.9793C4.94887 18.3383 4.90533 17.6756 4.90533 17.0129C4.90533 7.61561 12.5347 0 21.938 0C26.1717 0 29.9463 1.63365 32.9284 4.19753C33.7011 4.86023 34.4149 5.66064 35.068 6.4537Z" fill="url(#paint6_linear_102_567)"/>
<defs>
<filter id="filter0_f_102_567" x="-52.5636" y="-63.4984" width="135.674" height="136.644" filterUnits="userSpaceOnUse" color-interpolation-filters="sRGB">
<feFlood flood-opacity="0" result="BackgroundImageFix"/>
<feBlend mode="normal" in="SourceGraphic" in2="BackgroundImageFix" result="shape"/>
<feGaussianBlur stdDeviation="29.5" result="effect1_foregroundBlur_102_567"/>
</filter>
<filter id="filter1_f_102_567" x="-33.4336" y="-63.9738" width="130.76" height="137.319" filterUnits="userSpaceOnUse" color-interpolation-filters="sRGB">
<feFlood flood-opacity="0" result="BackgroundImageFix"/>
<feBlend mode="normal" in="SourceGraphic" in2="BackgroundImageFix" result="shape"/>
<feGaussianBlur stdDeviation="29.5" result="effect1_foregroundBlur_102_567"/>
</filter>
<filter id="filter2_f_102_567" x="-33.9465" y="-36.6432" width="130.347" height="130.414" filterUnits="userSpaceOnUse" color-interpolation-filters="sRGB">
<feFlood flood-opacity="0" result="BackgroundImageFix"/>
<feBlend mode="normal" in="SourceGraphic" in2="BackgroundImageFix" result="shape"/>
<feGaussianBlur stdDeviation="29.5" result="effect1_foregroundBlur_102_567"/>
</filter>
<filter id="filter3_f_102_567" x="-53.5679" y="-38.1123" width="130.347" height="130.414" filterUnits="userSpaceOnUse" color-interpolation-filters="sRGB">
<feFlood flood-opacity="0" result="BackgroundImageFix"/>
<feBlend mode="normal" in="SourceGraphic" in2="BackgroundImageFix" result="shape"/>
<feGaussianBlur stdDeviation="29.5" result="effect1_foregroundBlur_102_567"/>
</filter>
<linearGradient id="paint0_linear_102_567" x1="40.6654" y1="30.8386" x2="34.308" y2="26.4071" gradientUnits="userSpaceOnUse">
<stop stop-color="#FC0106"/>
<stop offset="0.5559" stop-color="#E82626"/>
<stop offset="0.6787" stop-color="#B90004"/>
<stop offset="1" stop-color="#790400"/>
</linearGradient>
<linearGradient id="paint1_linear_102_567" x1="3.65291" y1="29.9599" x2="7.90202" y2="26.4186" gradientUnits="userSpaceOnUse">
<stop stop-color="#FC0106"/>
<stop offset="0.493927" stop-color="#E82626"/>
<stop offset="0.716768" stop-color="#B90004"/>
<stop offset="1" stop-color="#790400"/>
</linearGradient>
<linearGradient id="paint2_linear_102_567" x1="21.8131" y1="4.09259" x2="21.8131" y2="29.9074" gradientUnits="userSpaceOnUse">
<stop stop-color="#BD49D0"/>
<stop offset="0.5" stop-color="#9703B9"/>
<stop offset="1" stop-color="#852878"/>
</linearGradient>
<linearGradient id="paint3_linear_102_567" x1="21.8132" y1="3.00278" x2="21.8132" y2="30.8383" gradientUnits="userSpaceOnUse">
<stop stop-color="#FFEE02"/>
<stop offset="0.5" stop-color="#D27003"/>
<stop offset="1" stop-color="#FBA400"/>
</linearGradient>
<linearGradient id="paint4_linear_102_567" x1="21.7947" y1="11.4459" x2="21.7947" y2="21.3674" gradientUnits="userSpaceOnUse">
<stop offset="0.0820804" stop-color="#F7E547"/>
<stop offset="0.2263" stop-color="#FEFCAF"/>
<stop offset="0.3883" stop-color="#F8DC20"/>
<stop offset="0.5895" stop-color="#E67A0B"/>
<stop offset="1" stop-color="#F8DC20"/>
</linearGradient>
<linearGradient id="paint5_linear_102_567" x1="21.8131" y1="4.09259" x2="21.8131" y2="29.9074" gradientUnits="userSpaceOnUse">
<stop stop-color="#AB2EBE"/>
<stop offset="1" stop-color="#340354"/>
</linearGradient>
<linearGradient id="paint6_linear_102_567" x1="12.8753" y1="2.62074" x2="22.4955" y2="16.0132" gradientUnits="userSpaceOnUse">
<stop offset="0.5084" stop-color="white" stop-opacity="0"/>
<stop offset="1" stop-color="white"/>
</linearGradient>
</defs>
</svg>
