<svg width="69" height="68" viewBox="0 0 69 68" fill="none" xmlns="http://www.w3.org/2000/svg">
<g filter="url(#filter0_d_80_594)">
<path d="M31.489 7.06049C33.144 5.37844 35.856 5.37844 37.511 7.06049C38.5406 8.10686 40.0396 8.54371 41.4701 8.21427L41.549 8.19611C43.8232 7.67236 46.0823 9.12481 46.5498 11.4113C46.8425 12.8428 47.866 14.0152 49.2449 14.4986L49.3114 14.5219C51.5093 15.2922 52.6249 17.7364 51.767 19.9015C51.2301 21.2565 51.4532 22.7952 52.3525 23.9422C53.7949 25.7818 53.3967 28.4644 51.4947 29.8235C50.308 30.6714 49.65 32.0895 49.7782 33.5424C49.9827 35.8609 48.2269 37.8882 45.903 38.0167L45.8131 38.0217C44.3507 38.1026 43.0364 38.9409 42.3465 40.233C41.2416 42.3022 38.6279 43.0477 36.5794 41.9047C35.2959 41.1886 33.7041 41.1886 32.4206 41.9047C30.3721 43.0477 27.7584 42.3022 26.6535 40.233C25.9636 38.9409 24.6493 38.1026 23.1869 38.0217L23.097 38.0167C20.7731 37.8882 19.0173 35.8609 19.2218 33.5424C19.35 32.0895 18.692 30.6714 17.5053 29.8235C15.6033 28.4644 15.2051 25.7818 16.6475 23.9422C17.5468 22.7952 17.7699 21.2565 17.233 19.9015C16.3751 17.7364 17.4907 15.2922 19.6886 14.5219L19.7551 14.4986C21.134 14.0152 22.1575 12.8428 22.4502 11.4113C22.9177 9.12481 25.1768 7.67236 27.451 8.19611L27.5299 8.21427C28.9604 8.54371 30.4594 8.10686 31.489 7.06049Z" fill="#316FE9"/>
<path d="M31.489 7.06049C33.144 5.37844 35.856 5.37844 37.511 7.06049C38.5406 8.10686 40.0396 8.54371 41.4701 8.21427L41.549 8.19611C43.8232 7.67236 46.0823 9.12481 46.5498 11.4113C46.8425 12.8428 47.866 14.0152 49.2449 14.4986L49.3114 14.5219C51.5093 15.2922 52.6249 17.7364 51.767 19.9015C51.2301 21.2565 51.4532 22.7952 52.3525 23.9422C53.7949 25.7818 53.3967 28.4644 51.4947 29.8235C50.308 30.6714 49.65 32.0895 49.7782 33.5424C49.9827 35.8609 48.2269 37.8882 45.903 38.0167L45.8131 38.0217C44.3507 38.1026 43.0364 38.9409 42.3465 40.233C41.2416 42.3022 38.6279 43.0477 36.5794 41.9047C35.2959 41.1886 33.7041 41.1886 32.4206 41.9047C30.3721 43.0477 27.7584 42.3022 26.6535 40.233C25.9636 38.9409 24.6493 38.1026 23.1869 38.0217L23.097 38.0167C20.7731 37.8882 19.0173 35.8609 19.2218 33.5424C19.35 32.0895 18.692 30.6714 17.5053 29.8235C15.6033 28.4644 15.2051 25.7818 16.6475 23.9422C17.5468 22.7952 17.7699 21.2565 17.233 19.9015C16.3751 17.7364 17.4907 15.2922 19.6886 14.5219L19.7551 14.4986C21.134 14.0152 22.1575 12.8428 22.4502 11.4113C22.9177 9.12481 25.1768 7.67236 27.451 8.19611L27.5299 8.21427C28.9604 8.54371 30.4594 8.10686 31.489 7.06049Z" fill="black" fill-opacity="0.1"/>
<path d="M31.489 7.06049C33.144 5.37844 35.856 5.37844 37.511 7.06049C38.5406 8.10686 40.0396 8.54371 41.4701 8.21427L41.549 8.19611C43.8232 7.67236 46.0823 9.12481 46.5498 11.4113C46.8425 12.8428 47.866 14.0152 49.2449 14.4986L49.3114 14.5219C51.5093 15.2922 52.6249 17.7364 51.767 19.9015C51.2301 21.2565 51.4532 22.7952 52.3525 23.9422C53.7949 25.7818 53.3967 28.4644 51.4947 29.8235C50.308 30.6714 49.65 32.0895 49.7782 33.5424C49.9827 35.8609 48.2269 37.8882 45.903 38.0167L45.8131 38.0217C44.3507 38.1026 43.0364 38.9409 42.3465 40.233C41.2416 42.3022 38.6279 43.0477 36.5794 41.9047C35.2959 41.1885 33.7041 41.1885 32.4206 41.9047C30.3721 43.0477 27.7584 42.3022 26.6535 40.233C25.9636 38.9409 24.6493 38.1026 23.1869 38.0217L23.097 38.0167C20.7731 37.8882 19.0173 35.8609 19.2218 33.5424C19.35 32.0895 18.692 30.6714 17.5053 29.8235C15.6033 28.4644 15.2051 25.7818 16.6475 23.9422C17.5468 22.7952 17.7699 21.2565 17.233 19.9015C16.3751 17.7364 17.4907 15.2922 19.6886 14.5219L19.7551 14.4986C21.134 14.0152 22.1575 12.8428 22.4502 11.4113C22.9177 9.12481 25.1768 7.67236 27.451 8.19611L27.5299 8.21427C28.9604 8.54371 30.4594 8.10686 31.489 7.06049Z" fill="url(#paint0_linear_80_594)" fill-opacity="0.1"/>
<path opacity="0.8" d="M32.1576 26.945L29.4285 24.2551C29.2815 24.1099 29.082 24.0283 28.874 24.0283C28.666 24.0283 28.4665 24.1099 28.3195 24.2551C28.0128 24.5574 28.0128 25.0458 28.3195 25.3481L31.607 28.5884C31.9138 28.8907 32.4093 28.8907 32.716 28.5884L41.037 20.3868C41.3437 20.0845 41.3437 19.5961 41.037 19.2938C40.8901 19.1487 40.6906 19.0671 40.4825 19.0671C40.2745 19.0671 40.075 19.1487 39.9281 19.2938L32.1576 26.945Z" fill="white" stroke="#FDFDFD" stroke-width="1.3048"/>
<path d="M34.5001 11.9332C34.5001 11.1342 35.1494 10.4792 35.9445 10.5573C38.5107 10.8096 40.97 11.7307 43.0588 13.2359C45.5369 15.0216 47.3629 17.5354 48.2688 20.4083C49.1746 23.2811 49.1126 26.3615 48.0917 29.1974C47.0709 32.0333 45.145 34.4752 42.5969 36.1646C40.0488 37.854 37.0126 38.7019 33.9342 38.5838C30.8557 38.4657 27.8972 37.3878 25.4929 35.5085C23.0886 33.6291 21.3652 31.0473 20.5757 28.1419C19.9136 25.7053 19.9377 23.1489 20.6317 20.7389C20.8549 19.964 21.7097 19.5994 22.462 19.89C23.2324 20.1876 23.5988 21.058 23.3957 21.8586C22.9354 23.6726 22.9474 25.5787 23.4424 27.4005C24.0694 29.7077 25.4379 31.758 27.3473 33.2505C29.2566 34.7429 31.606 35.5988 34.0507 35.6926C36.4954 35.7864 38.9064 35.1131 40.93 33.7715C42.9535 32.4299 44.4829 30.4907 45.2935 28.2387C46.1042 25.9867 46.1535 23.5404 45.4341 21.259C44.7148 18.9776 43.2647 16.9813 41.2967 15.5632C39.7185 14.4259 37.8738 13.7086 35.9432 13.469C35.1503 13.3707 34.5001 12.7322 34.5001 11.9332Z" fill="white" fill-opacity="0.5"/>
</g>
<defs>
<filter id="filter0_d_80_594" x="-0.862715" y="-0.954238" width="70.7254" height="69.7254" filterUnits="userSpaceOnUse" color-interpolation-filters="sRGB">
<feFlood flood-opacity="0" result="BackgroundImageFix"/>
<feColorMatrix in="SourceAlpha" type="matrix" values="0 0 0 0 0 0 0 0 0 0 0 0 0 0 0 0 0 0 127 0" result="hardAlpha"/>
<feOffset dy="9.90848"/>
<feGaussianBlur stdDeviation="7.43136"/>
<feComposite in2="hardAlpha" operator="out"/>
<feColorMatrix type="matrix" values="0 0 0 0 0.257756 0 0 0 0 0.351279 0 0 0 0 1 0 0 0 0.4 0"/>
<feBlend mode="normal" in2="BackgroundImageFix" result="effect1_dropShadow_80_594"/>
<feBlend mode="normal" in="SourceGraphic" in2="effect1_dropShadow_80_594" result="shape"/>
</filter>
<linearGradient id="paint0_linear_80_594" x1="6.95889" y1="0.875244" x2="36.9484" y2="55.742" gradientUnits="userSpaceOnUse">
<stop stop-color="white"/>
<stop offset="1" stop-color="white" stop-opacity="0"/>
</linearGradient>
</defs>
</svg>
