<svg width="43" height="34" viewBox="0 0 43 34" fill="none" xmlns="http://www.w3.org/2000/svg">
<path d="M32.3544 30.0123C32.3544 30.0123 32.9806 30.9232 34.9751 32.2014C35.1243 32.2958 35.2809 32.3934 35.4458 32.492C36.072 32.8688 36.8078 33.2696 37.6772 33.6852L37.8859 28.3333C37.8859 28.3333 40.5995 28.5432 43 27.4938C42.7234 27.3553 41.5315 26.7099 39.8178 25.3741C39.6644 25.2555 39.5047 25.1296 39.344 24.9984C38.5862 24.3856 37.7419 23.6478 36.8391 22.7716C35.4854 25.0802 32.3544 30.0123 32.3544 30.0123Z" fill="url(#paint0_linear_102_513)"/>
<path d="M10.6456 29.6976C10.6456 29.6976 10.0194 30.6084 8.02493 31.8866C7.87568 31.981 7.71913 32.0786 7.55422 32.1773C6.92801 32.554 6.19743 32.9548 5.32282 33.3704L5.11408 28.0185C5.11408 28.0185 2.40049 28.2284 0 27.179C0.276578 27.0405 1.46847 26.3952 3.18221 25.0593C3.33563 24.9407 3.49532 24.8148 3.65604 24.6836C4.41376 24.0708 5.25811 23.3331 6.1609 22.4568C7.51456 24.7655 10.6456 29.6976 10.6456 29.6976Z" fill="url(#paint1_linear_102_513)"/>
<path d="M8.02497 31.8865C7.87572 31.981 7.71917 32.0786 7.55427 32.1772C7.18167 30.961 5.6965 28.2746 5.11412 27.4938C4.70427 26.9336 4.25056 26.4073 3.75732 25.9197C3.56424 25.7256 3.3315 25.3321 3.18225 25.0592C3.33567 24.9407 3.49536 24.8147 3.65609 24.6836C3.84604 24.9858 4.1341 25.4381 4.38667 25.8148C4.80414 26.4444 7.41337 29.8025 7.72647 30.4321C7.93208 30.8497 8.00096 31.4972 8.02497 31.8865Z" fill="#9925E8"/>
<path d="M21.5004 0C30.8381 0.000237338 38.4077 7.61131 38.4077 17C38.4077 26.3887 30.8381 33.9998 21.5004 34C12.1625 34 4.59222 26.3888 4.59222 17C4.59222 7.61116 12.1625 0 21.5004 0ZM21.5004 4.09277C14.4105 4.09277 8.66254 9.87144 8.66254 17C8.66254 24.1286 14.4105 29.9072 21.5004 29.9072C28.5901 29.907 34.3373 24.1284 34.3373 17C34.3373 9.87158 28.5901 4.09301 21.5004 4.09277Z" fill="#6C7E92"/>
<mask id="mask0_102_513" style="mask-type:alpha" maskUnits="userSpaceOnUse" x="4" y="0" width="35" height="34">
<path d="M21.5004 0C30.8381 0.000237338 38.4077 7.61131 38.4077 17C38.4077 26.3887 30.8381 33.9998 21.5004 34C12.1625 34 4.59222 26.3888 4.59222 17C4.59222 7.61116 12.1625 0 21.5004 0ZM21.5004 4.09277C14.4105 4.09277 8.66254 9.87144 8.66254 17C8.66254 24.1286 14.4105 29.9072 21.5004 29.9072C28.5901 29.907 34.3373 24.1284 34.3373 17C34.3373 9.87158 28.5901 4.09301 21.5004 4.09277Z" fill="#6C7E92"/>
</mask>
<g mask="url(#mask0_102_513)">
<g filter="url(#filter0_f_102_513)">
<ellipse cx="3.8713" cy="7.85087" rx="3.8713" ry="7.85087" transform="matrix(0.734822 0.67826 -0.674267 0.738487 13.6139 -2.62347)" fill="#F0F2F7"/>
</g>
<g filter="url(#filter1_f_102_513)">
<ellipse cx="3.86693" cy="7.85972" rx="3.86693" ry="7.85972" transform="matrix(-0.864844 0.502042 -0.497961 -0.867199 39.6692 10.6747)" fill="#F0F2F7"/>
</g>
<g filter="url(#filter2_f_102_513)">
<ellipse cx="3.8722" cy="7.84905" rx="3.8722" ry="7.84905" transform="matrix(-0.705181 -0.709028 0.705181 -0.709028 28.1093 36.8745)" fill="#F0F2F7"/>
</g>
<g filter="url(#filter3_f_102_513)">
<ellipse cx="3.8722" cy="7.84905" rx="3.8722" ry="7.84905" transform="matrix(0.705181 -0.709028 0.705181 0.709028 3.02667 24.275)" fill="#889BAF"/>
</g>
</g>
<ellipse cx="21.5" cy="17" rx="12.8374" ry="12.9074" fill="url(#paint2_linear_102_513)"/>
<path d="M21.4995 6.59259C27.1958 6.59259 31.8373 11.2392 31.8374 16.9998C31.8374 22.7605 27.1959 27.407 21.4995 27.407C15.8034 27.4068 11.1626 22.7604 11.1626 16.9998C11.1627 11.2394 15.8034 6.59284 21.4995 6.59259Z" stroke="url(#paint3_linear_102_513)" stroke-width="5"/>
<path d="M21.4997 3.14816C29.1083 3.14816 35.2769 9.34969 35.277 16.9997C35.277 24.6499 29.1084 30.8523 21.4997 30.8523C13.8912 30.8521 7.72333 24.6498 7.72333 16.9997C7.72348 9.3498 13.8913 3.14834 21.4997 3.14816ZM21.4997 4.0925C14.41 4.09266 8.66293 9.87139 8.66278 16.9997C8.66278 24.1282 14.4099 29.9068 21.4997 29.907C28.5896 29.907 34.3376 24.1283 34.3376 16.9997C34.3374 9.87129 28.5895 4.0925 21.4997 4.0925Z" fill="url(#paint4_linear_102_513)"/>
<path d="M24.7344 23.1596C24.5589 23.1594 24.3861 23.1158 24.2314 23.0326L21.5929 21.639C21.5578 21.6204 21.5188 21.6107 21.4792 21.6107C21.4395 21.6107 21.4005 21.6204 21.3654 21.639L18.7269 23.0326C18.5722 23.1158 18.3994 23.1594 18.2239 23.1596C18.0665 23.159 17.9112 23.1241 17.7686 23.0571C17.6261 22.9901 17.4998 22.8927 17.3985 22.7717C17.2971 22.6506 17.2233 22.5089 17.182 22.3562C17.1407 22.2035 17.1329 22.0437 17.1593 21.8877L17.6634 18.9347C17.6702 18.8953 17.6672 18.8548 17.6549 18.8167C17.6425 18.7787 17.6211 18.7443 17.5925 18.7165L15.4592 16.625C15.315 16.4835 15.2131 16.3043 15.1649 16.1076C15.1167 15.9109 15.1241 15.7046 15.1863 15.5119C15.2484 15.3192 15.3629 15.1478 15.5168 15.017C15.6707 14.8863 15.8579 14.8014 16.0572 14.7718L19.0066 14.3416C19.046 14.3356 19.0833 14.3202 19.1155 14.2966C19.1477 14.2731 19.1737 14.2421 19.1914 14.2062L20.5106 11.5188C20.5998 11.3371 20.7378 11.1841 20.909 11.0772C21.0801 10.9702 21.2776 10.9136 21.4792 10.9136C21.6807 10.9136 21.8782 10.9702 22.0493 11.0772C22.2205 11.1841 22.3585 11.3371 22.4477 11.5188L23.7669 14.2062C23.7846 14.2421 23.8106 14.2731 23.8428 14.2966C23.875 14.3202 23.9123 14.3356 23.9517 14.3416L26.9011 14.7718C27.1004 14.8014 27.2876 14.8863 27.4415 15.017C27.5954 15.1478 27.7099 15.3192 27.772 15.5119C27.8342 15.7046 27.8416 15.9109 27.7934 16.1076C27.7452 16.3043 27.6433 16.4835 27.4992 16.625L25.3659 18.7165C25.3372 18.7443 25.3158 18.7787 25.3034 18.8167C25.2911 18.8548 25.2881 18.8953 25.2949 18.9347L25.799 21.8877C25.8254 22.0437 25.8176 22.2035 25.7763 22.3562C25.735 22.5089 25.6612 22.6506 25.5598 22.7717C25.4585 22.8927 25.3322 22.9901 25.1897 23.0571C25.0471 23.1241 24.8918 23.159 24.7344 23.1596Z" fill="#053A4C"/>
<path d="M22.0737 11.7052L23.3929 14.3926C23.4406 14.4893 23.5109 14.573 23.5978 14.6364C23.6847 14.6998 23.7855 14.7411 23.8918 14.7568L26.8412 15.1881C26.9636 15.206 27.0785 15.2579 27.1731 15.338C27.2676 15.4182 27.338 15.5233 27.3762 15.6415C27.4144 15.7598 27.419 15.8864 27.3893 16.0071C27.3597 16.1278 27.2971 16.2378 27.2086 16.3246L25.0743 18.416C24.9974 18.4915 24.94 18.5846 24.9069 18.6873C24.8738 18.79 24.8661 18.8993 24.8843 19.0057L25.3874 21.9597C25.4085 22.0823 25.3951 22.2084 25.3486 22.3237C25.3021 22.4389 25.2244 22.5388 25.1243 22.6119C25.0242 22.685 24.9057 22.7285 24.7823 22.7373C24.6589 22.7461 24.5355 22.7199 24.4261 22.6618L21.7929 21.2682C21.6977 21.2176 21.5917 21.1911 21.484 21.1911C21.3763 21.1911 21.2702 21.2176 21.175 21.2682L18.5335 22.6618C18.4241 22.7199 18.3007 22.7461 18.1773 22.7373C18.0539 22.7285 17.9354 22.685 17.8353 22.6119C17.7352 22.5388 17.6575 22.4389 17.611 22.3237C17.5645 22.2084 17.551 22.0823 17.5722 21.9597L18.0753 19.0057C18.0935 18.8993 18.0858 18.79 18.0527 18.6873C18.0196 18.5846 17.9622 18.4915 17.8853 18.416L15.751 16.3246C15.6625 16.2378 15.5999 16.1278 15.5703 16.0071C15.5406 15.8864 15.5452 15.7598 15.5834 15.6415C15.6216 15.5233 15.692 15.4182 15.7865 15.338C15.8811 15.2579 15.996 15.206 16.1184 15.1881L19.0678 14.7568C19.174 14.7411 19.2749 14.6998 19.3618 14.6364C19.4487 14.573 19.519 14.4893 19.5667 14.3926L20.8859 11.7052C20.9405 11.5936 21.025 11.4996 21.13 11.4339C21.235 11.3682 21.3561 11.3333 21.4798 11.3333C21.6035 11.3333 21.7246 11.3682 21.8296 11.4339C21.9346 11.4996 22.0191 11.5936 22.0737 11.7052Z" fill="url(#paint5_linear_102_513)"/>
<path opacity="0.15" d="M34.7548 6.4537C33.9604 7.40973 33.2376 8.14794 32.356 9.00619C32.2907 9.07137 32.2254 9.13655 32.1601 9.20174C32.1166 9.24519 32.0839 9.27779 32.0404 9.32124C31.8771 9.47334 31.7139 9.63629 31.5397 9.78839C31.4744 9.84271 31.42 9.89703 31.3547 9.96221C31.3112 9.9948 31.2677 10.0383 31.235 10.0709C31.1806 10.1252 31.1262 10.1686 31.0718 10.2121C25.2817 15.329 17.9245 18.4469 10.1537 19.0119C10.0775 19.0119 10.0122 19.0227 9.93602 19.0227C9.8816 19.0227 9.82718 19.0336 9.77277 19.0336C9.6857 19.0336 9.60951 19.0444 9.52245 19.0444C9.23947 19.0553 8.9565 19.077 8.67353 19.077C8.58647 19.077 8.48851 19.0879 8.40145 19.0879C8.18378 19.0988 7.96611 19.0988 7.75932 19.0988C6.74716 19.0988 5.73499 19.0662 4.71194 18.9793C4.63576 18.3383 4.59222 17.6756 4.59222 17.0129C4.59222 7.61561 12.2216 0 21.6249 0C25.8586 0 29.6332 1.63365 32.6153 4.19753C33.388 4.86023 34.1018 5.66064 34.7548 6.4537Z" fill="url(#paint6_linear_102_513)"/>
<defs>
<filter id="filter0_f_102_513" x="-53.8457" y="-59.5662" width="130.021" height="130.732" filterUnits="userSpaceOnUse" color-interpolation-filters="sRGB">
<feFlood flood-opacity="0" result="BackgroundImageFix"/>
<feBlend mode="normal" in="SourceGraphic" in2="BackgroundImageFix" result="shape"/>
<feGaussianBlur stdDeviation="29.5" result="effect1_foregroundBlur_102_513"/>
</filter>
<filter id="filter1_f_102_513" x="-31.7371" y="-60.2888" width="128.296" height="132.178" filterUnits="userSpaceOnUse" color-interpolation-filters="sRGB">
<feFlood flood-opacity="0" result="BackgroundImageFix"/>
<feBlend mode="normal" in="SourceGraphic" in2="BackgroundImageFix" result="shape"/>
<feGaussianBlur stdDeviation="29.5" result="effect1_foregroundBlur_102_513"/>
</filter>
<filter id="filter2_f_102_513" x="-34.2596" y="-36.6432" width="130.347" height="130.414" filterUnits="userSpaceOnUse" color-interpolation-filters="sRGB">
<feFlood flood-opacity="0" result="BackgroundImageFix"/>
<feBlend mode="normal" in="SourceGraphic" in2="BackgroundImageFix" result="shape"/>
<feGaussianBlur stdDeviation="29.5" result="effect1_foregroundBlur_102_513"/>
</filter>
<filter id="filter3_f_102_513" x="-53.881" y="-38.1123" width="130.347" height="130.414" filterUnits="userSpaceOnUse" color-interpolation-filters="sRGB">
<feFlood flood-opacity="0" result="BackgroundImageFix"/>
<feBlend mode="normal" in="SourceGraphic" in2="BackgroundImageFix" result="shape"/>
<feGaussianBlur stdDeviation="29.5" result="effect1_foregroundBlur_102_513"/>
</filter>
<linearGradient id="paint0_linear_102_513" x1="39.9211" y1="30.537" x2="34.4774" y2="27.1532" gradientUnits="userSpaceOnUse">
<stop offset="0.01" stop-color="#9D00FF"/>
<stop offset="0.41" stop-color="#7B00DB"/>
<stop offset="0.53" stop-color="#9825E4"/>
<stop offset="0.62" stop-color="#6800B5"/>
<stop offset="1" stop-color="#400071"/>
</linearGradient>
<linearGradient id="paint1_linear_102_513" x1="2.33473" y1="30.5318" x2="8.69571" y2="26.1013" gradientUnits="userSpaceOnUse">
<stop offset="0.01" stop-color="#9D00FF"/>
<stop offset="0.41" stop-color="#7B00DB"/>
<stop offset="0.53" stop-color="#9825E4"/>
<stop offset="0.62" stop-color="#6800B5"/>
<stop offset="1" stop-color="#400071"/>
</linearGradient>
<linearGradient id="paint2_linear_102_513" x1="21.5" y1="4.09259" x2="21.5" y2="29.9074" gradientUnits="userSpaceOnUse">
<stop stop-color="#2A99A4"/>
<stop offset="0.484375" stop-color="#10667B"/>
<stop offset="1" stop-color="#184A61"/>
</linearGradient>
<linearGradient id="paint3_linear_102_513" x1="21.5" y1="4.09259" x2="21.5" y2="29.9074" gradientUnits="userSpaceOnUse">
<stop stop-color="#3F879B"/>
<stop offset="1" stop-color="#062C3C"/>
</linearGradient>
<linearGradient id="paint4_linear_102_513" x1="21.5002" y1="3.14816" x2="21.5002" y2="30.8523" gradientUnits="userSpaceOnUse">
<stop stop-color="#3C4E56"/>
<stop offset="1" stop-color="#ADBED2"/>
</linearGradient>
<linearGradient id="paint5_linear_102_513" x1="21.4798" y1="11.4439" x2="21.4798" y2="21.371" gradientUnits="userSpaceOnUse">
<stop offset="0.08" stop-color="#C8D0E5"/>
<stop offset="0.23" stop-color="#FAFAFA"/>
<stop offset="0.39" stop-color="#C8D1E2"/>
<stop offset="0.59" stop-color="#566B7C"/>
<stop offset="1" stop-color="#A9B8CF"/>
</linearGradient>
<linearGradient id="paint6_linear_102_513" x1="12.5622" y1="2.62074" x2="22.1824" y2="16.0132" gradientUnits="userSpaceOnUse">
<stop offset="0.5084" stop-color="white" stop-opacity="0"/>
<stop offset="1" stop-color="white"/>
</linearGradient>
</defs>
</svg>
